<svg width="46" height="50" viewBox="0 0 46 50" fill="none" xmlns="http://www.w3.org/2000/svg">
<path d="M24.7475 45.9067C19.1421 51.3872 10.1294 51.3654 4.55524 45.8302C-1.01729 40.2981 -1.03925 31.3465 4.48026 25.7802L4.47562 25.7769L24.7507 5.64412L27.2863 3.12725C31.4857 -1.04242 38.2925 -1.04242 42.4918 3.12725C46.6911 7.29693 46.6911 14.0568 42.4918 18.2281L20.1421 40.1905L20.1342 40.1842C17.3799 42.8213 12.9899 42.8025 10.2685 40.1139C7.547 37.4237 7.52986 33.0869 10.1981 30.3685L10.1903 30.359L12.6789 27.9032L25.1224 15.6129L27.6095 18.0719L12.6789 32.818C11.3041 34.1741 11.3041 36.3754 12.6789 37.7329C14.0538 39.0904 16.283 39.0904 17.6563 37.7329L39.9575 15.708L39.9512 15.7034L40.0357 15.6314C42.8353 12.8521 42.8353 8.34345 40.0357 5.56432C37.236 2.7852 32.6993 2.78502 29.8996 5.56432L29.8246 5.64877L29.82 5.64555L27.286 8.16082L7.00963 28.2938C2.81032 32.4635 2.81032 39.2234 7.00963 43.3931C11.2089 47.5628 18.0174 47.5628 22.2135 43.3931L39.9546 25.7769L42.4886 23.2617L45.0226 25.7769L42.4886 28.2938L24.7507 45.91L24.7475 45.9067Z" fill="#5CDC97"/>
</svg>
