<svg width="254" height="188" viewBox="0 0 254 188" fill="none" xmlns="http://www.w3.org/2000/svg">
<path d="M226.713 0.522461H27.0004C12.3379 0.522461 0.406593 12.4537 0.406593 27.1163V160.597C0.406593 175.262 12.3379 187.191 27.0004 187.191H226.713C241.378 187.191 253.307 175.262 253.307 160.597V27.1163C253.307 12.4537 241.378 0.522461 226.713 0.522461ZM27.0004 17.3825H226.713C232.08 17.3825 236.447 21.7492 236.447 27.1163V41.023L130.206 90.0968C128.076 91.0803 125.631 91.0775 123.501 90.0968L17.2666 41.023V27.1163C17.2666 21.7492 21.6333 17.3825 27.0004 17.3825ZM226.713 170.331H27.0004C21.6333 170.331 17.2666 165.964 17.2666 160.597V59.5971L116.431 105.403C119.744 106.934 123.299 107.696 126.857 107.696C130.414 107.696 133.969 106.932 137.279 105.403L236.447 59.5943V160.597C236.447 165.964 232.08 170.331 226.713 170.331Z" fill="black"/>
</svg>
