<svg width="50" height="50" viewBox="0 0 50 50" fill="none" xmlns="http://www.w3.org/2000/svg">
<g clip-path="url(#clip0_453_136)">
<path d="M40 0H10C4.47715 0 0 4.47715 0 10V40C0 45.5228 4.47715 50 10 50H40C45.5228 50 50 45.5228 50 40V10C50 4.47715 45.5228 0 40 0Z" fill="#5CDC97"/>
<path d="M42.5 20H7.5C6.11929 20 5 21.1193 5 22.5V27.5C5 28.8807 6.11929 30 7.5 30H42.5C43.8807 30 45 28.8807 45 27.5V22.5C45 21.1193 43.8807 20 42.5 20Z" fill="#F0F0F0"/>
<path d="M27.5 5H22.5C21.1193 5 20 6.11929 20 7.5V42.5C20 43.8807 21.1193 45 22.5 45H27.5C28.8807 45 30 43.8807 30 42.5V7.5C30 6.11929 28.8807 5 27.5 5Z" fill="#F0F0F0"/>
</g>
<defs>
<clipPath id="clip0_453_136">
<rect width="50" height="50" fill="white"/>
</clipPath>
</defs>
</svg>
