<svg width="50" height="50" viewBox="0 0 50 50" fill="none" xmlns="http://www.w3.org/2000/svg">
<g clip-path="url(#clip0_1031_261)">
<path d="M40 0H10C4.47715 0 0 4.47715 0 10V40C0 45.5228 4.47715 50 10 50H40C45.5228 50 50 45.5228 50 40V10C50 4.47715 45.5228 0 40 0Z" fill="#5CDC97"/>
<path d="M26.1282 46C30.2816 46 34.3417 44.7684 37.7951 42.4609C41.2486 40.1534 43.9402 36.8736 45.5296 33.0364C47.1191 29.1991 47.5349 24.9767 46.7246 20.9031C45.9144 16.8295 43.9143 13.0877 40.9774 10.1508C38.0405 7.21387 34.2987 5.21381 30.2251 4.40352C26.1515 3.59323 21.9291 4.0091 18.0918 5.59854C14.2546 7.18798 10.9748 9.8796 8.66729 13.333C6.35978 16.7865 5.12816 20.8466 5.12815 25L12.4782 25C12.4782 22.3003 13.2787 19.6612 14.7786 17.4165C16.2785 15.1717 18.4103 13.4222 20.9045 12.3891C23.3987 11.3559 26.1433 11.0856 28.7911 11.6123C31.439 12.139 33.8712 13.439 35.7802 15.348C37.6891 17.257 38.9892 19.6892 39.5159 22.337C40.0426 24.9849 39.7722 27.7294 38.7391 30.2236C37.706 32.7178 35.9564 34.8497 33.7117 36.3496C31.467 37.8495 28.8279 38.65 26.1282 38.65V46Z" fill="#F0F0F0"/>
<path d="M8.9282 35L2 24.5H15.8564L8.9282 35Z" fill="#F0F0F0"/>
</g>
<defs>
<clipPath id="clip0_1031_261">
<rect width="50" height="50" fill="white"/>
</clipPath>
</defs>
</svg>
