<svg width="50" height="46" viewBox="0 0 50 46" fill="none" xmlns="http://www.w3.org/2000/svg">
<path d="M46.329 0.735352H3.67442C1.64803 0.735352 0 2.38338 0 4.40806V34.3556C0 36.3802 1.64803 38.0283 3.67442 38.0283H26.7554L35.3739 44.4653C36.0795 44.9937 36.8089 45.2629 37.5349 45.2629C38.8796 45.2629 40.3282 44.237 40.3248 41.9856V38.0283H46.329C48.3537 38.0283 50 36.3802 50 34.3556V4.40806C50 2.38338 48.352 0.735352 46.329 0.735352ZM46.5949 34.3556C46.5949 34.5004 46.479 34.6197 46.3324 34.6197H36.9197V41.3601L27.8922 34.618H3.67442C3.52785 34.618 3.41196 34.4987 3.41196 34.3539V4.40636C3.41196 4.2615 3.52785 4.1422 3.67442 4.1422L46.3307 4.1439C46.4773 4.1439 46.5932 4.2632 46.5932 4.40806L46.5949 34.3556ZM9.38203 16.3925H16.7684V23.7771H9.38203V16.3925ZM21.312 16.3925H28.6983V23.7771H21.312V16.3925ZM33.2419 16.3925H40.6282V23.7771H33.2419V16.3925Z" fill="#000"/>
</svg>
