<svg width="22" height="23" viewBox="0 0 22 23" fill="none" xmlns="http://www.w3.org/2000/svg">
<path d="M15.3618 8.53468C15.6571 8.19681 15.6226 7.68352 15.2847 7.38822C14.9469 7.09293 14.4336 7.12744 14.1383 7.46532L15.3618 8.53468ZM9.06916 14.5L8.49434 15.0742C8.65337 15.2334 8.87131 15.3195 9.09622 15.312C9.32112 15.3046 9.53285 15.2041 9.68093 15.0347L9.06916 14.5ZM7.20902 11.4883C6.89189 11.1708 6.37744 11.1705 6.05997 11.4877C5.74251 11.8048 5.74224 12.3193 6.05937 12.6367L7.20902 11.4883ZM21.3125 11.5C21.3125 5.66846 16.5815 0.9375 10.75 0.9375V2.5625C15.6841 2.5625 19.6875 6.56592 19.6875 11.5H21.3125ZM10.75 0.9375C4.91846 0.9375 0.1875 5.66846 0.1875 11.5H1.8125C1.8125 6.56592 5.81592 2.5625 10.75 2.5625V0.9375ZM0.1875 11.5C0.1875 17.3315 4.91846 22.0625 10.75 22.0625V20.4375C5.81592 20.4375 1.8125 16.4341 1.8125 11.5H0.1875ZM10.75 22.0625C16.5815 22.0625 21.3125 17.3315 21.3125 11.5H19.6875C19.6875 16.4341 15.6841 20.4375 10.75 20.4375V22.0625ZM14.1383 7.46532L8.45738 13.9653L9.68093 15.0347L15.3618 8.53468L14.1383 7.46532ZM9.64398 13.9258L7.20902 11.4883L6.05937 12.6367L8.49434 15.0742L9.64398 13.9258Z" fill="#5CDC97"/>
</svg>
