<svg width="36" height="36" viewBox="0 0 36 36" fill="none" xmlns="http://www.w3.org/2000/svg">
<path d="M11.2696 22.0657C11.5962 21.8027 12.0134 21.6794 12.4305 21.7224C12.8476 21.7654 13.2308 21.9714 13.4968 22.2955C13.5145 22.3308 13.8504 22.6843 14.4337 23.0556C15.1054 23.4798 16.1484 23.9217 17.5625 23.9217C18.6664 23.9349 19.7513 23.6345 20.6913 23.0556C21.0448 22.8434 21.3807 22.596 21.6282 22.2955C21.8976 21.9819 22.2786 21.7856 22.6903 21.7481C23.102 21.7106 23.5121 21.8349 23.8338 22.0945C24.1555 22.3542 24.3635 22.7289 24.4137 23.1392C24.464 23.5496 24.3525 23.9634 24.1029 24.2929C23.6127 24.8698 23.034 25.365 22.3883 25.7601C20.9389 26.6548 19.2657 27.1206 17.5625 27.1035C15.8593 27.1206 14.1861 26.6548 12.7367 25.7601C12.0902 25.3662 11.5112 24.8708 11.0221 24.2929C10.7612 23.9641 10.6408 23.5455 10.6871 23.1283C10.7335 22.7111 10.9428 22.3292 11.2696 22.0657ZM14.4691 14.9066C14.4691 15.4926 14.2363 16.0546 13.8219 16.469C13.4075 16.8834 12.8455 17.1162 12.2595 17.1162C11.6734 17.1162 11.1114 16.8834 10.6971 16.469C10.2827 16.0546 10.0499 15.4926 10.0499 14.9066C10.0499 14.3205 10.2827 13.7585 10.6971 13.3441C11.1114 12.9298 11.6734 12.697 12.2595 12.697C12.8455 12.697 13.4075 12.9298 13.8219 13.3441C14.2363 13.7585 14.4691 14.3205 14.4691 14.9066ZM22.8655 17.1162C23.4516 17.1162 24.0136 16.8834 24.428 16.469C24.8423 16.0546 25.0751 15.4926 25.0751 14.9066C25.0751 14.3205 24.8423 13.7585 24.428 13.3441C24.0136 12.9298 23.4516 12.697 22.8655 12.697C22.2795 12.697 21.7175 12.9298 21.3031 13.3441C20.8887 13.7585 20.6559 14.3205 20.6559 14.9066C20.6559 15.4926 20.8887 16.0546 21.3031 16.469C21.7175 16.8834 22.2795 17.1162 22.8655 17.1162ZM17.5625 0.5C15.2644 0.5 12.9887 0.952651 10.8655 1.83211C8.74234 2.71157 6.81316 4.00061 5.18813 5.62563C3.56311 7.25066 2.27407 9.17984 1.39461 11.303C0.515151 13.4262 0.0625 15.7019 0.0625 18C0.0625 20.2981 0.515151 22.5738 1.39461 24.697C2.27407 26.8202 3.56311 28.7493 5.18813 30.3744C6.81316 31.9994 8.74234 33.2884 10.8655 34.1679C12.9887 35.0474 15.2644 35.5 17.5625 35.5C22.2038 35.5 26.655 33.6563 29.9369 30.3744C33.2188 27.0925 35.0625 22.6413 35.0625 18C35.0625 13.3587 33.2188 8.90752 29.9369 5.62563C26.655 2.34374 22.2038 0.5 17.5625 0.5ZM3.24432 18C3.24432 14.2026 4.75284 10.5607 7.43802 7.87552C10.1232 5.19034 13.7651 3.68182 17.5625 3.68182C21.3599 3.68182 25.0018 5.19034 27.687 7.87552C30.3722 10.5607 31.8807 14.2026 31.8807 18C31.8807 21.7974 30.3722 25.4393 27.687 28.1245C25.0018 30.8097 21.3599 32.3182 17.5625 32.3182C13.7651 32.3182 10.1232 30.8097 7.43802 28.1245C4.75284 25.4393 3.24432 21.7974 3.24432 18Z" fill="black"/>
</svg>
